<?xml version="1.0" encoding="UTF-8" standalone="no"?>
<!DOCTYPE svg PUBLIC "-//W3C//DTD SVG 1.1//EN" "http://www.w3.org/Graphics/SVG/1.1/DTD/svg11.dtd">
<svg width="100%" height="100%" viewBox="0 0 1334 1334" version="1.1" xmlns="http://www.w3.org/2000/svg" xmlns:xlink="http://www.w3.org/1999/xlink" xml:space="preserve" xmlns:serif="http://www.serif.com/" style="fill-rule:evenodd;clip-rule:evenodd;stroke-linejoin:round;stroke-miterlimit:2;">
    <g transform="matrix(1,0,0,1,-1500,0)">
        <g id="Page-2" serif:id="Page 2" transform="matrix(4.16667,0,0,4.16667,1500,0)">
            <rect x="0" y="0" width="320" height="320" style="fill:none;"/>
            <g id="Ebene-1" serif:id="Ebene 1">
                <g>
                    <g transform="matrix(1,0,0,1,57.5535,138.607)">
                        <path d="M0,7.988C3.361,16.851 6.683,25.62 10.113,34.646L-5.281,34.646C-7.29,27.833 -9.329,20.92 -11.367,14.008L-11.753,14.041L-11.753,34.696L-26.218,34.696L-26.218,-26.328C-25.711,-26.708 -24.97,-26.487 -24.28,-26.49C-19.179,-26.511 -14.077,-26.514 -8.975,-26.5C-0.073,-26.483 5.942,-21.613 7.82,-12.887C8.446,-9.982 8.665,-7.037 8.17,-4.098C7.287,1.153 5.658,3.525 0,7.988M-11.815,0.77C-8.642,0.839 -7.471,0.263 -6.862,-1.867C-6.093,-4.569 -5.888,-7.336 -6.566,-10.086C-7.183,-12.59 -9.038,-13.69 -11.815,-13.286L-11.815,0.77Z" style="fill:rgb(239,239,240);fill-rule:nonzero;"/>
                    </g>
                    <g transform="matrix(1,0,0,1,77.2018,173.303)">
                        <path d="M0,-60.329L14.121,-60.329L14.121,-39.172C16.241,-38.483 18.102,-38.729 20.257,-38.956L20.257,-60.258L34.41,-60.258L34.41,0L20.627,0L20.627,-23.305C18.497,-23.671 16.621,-23.542 14.489,-23.406L14.489,-0.065L0,-0.065L0,-60.329Z" style="fill:rgb(239,239,240);fill-rule:nonzero;"/>
                    </g>
                    <g transform="matrix(1,0,0,1,169.366,173.084)">
                        <path d="M0,-60.796C6.828,-60.796 13.604,-61.452 20.191,-59.678C28.101,-57.548 32.303,-51.719 34.006,-44.066C35.871,-35.695 35.747,-27.19 34.557,-18.741C33.949,-14.421 32.082,-10.42 29.721,-6.749C26.563,-1.839 21.533,-0.069 16.101,0.299C10.834,0.656 5.523,0.377 0,0.377L0,-60.796ZM14.364,-15.268C16.48,-14.763 17.636,-15.633 18.54,-17.033C19.444,-18.433 19.895,-20.002 20.191,-21.621C21.137,-26.787 20.98,-31.981 20.515,-37.168C20.317,-39.368 19.886,-41.562 18.907,-43.581C17.854,-45.752 16.926,-46.164 14.364,-45.733L14.364,-15.268Z" style="fill:rgb(239,239,240);fill-rule:nonzero;"/>
                    </g>
                    <g transform="matrix(1,0,0,1,159.788,143.75)">
                        <path d="M0,-0.712C-0.172,4.811 -0.635,10.278 -2.17,15.61C-2.919,18.215 -3.914,20.712 -5.375,23.015C-12.24,33.864 -27.048,33.638 -33.565,22.569C-35.9,18.608 -37.076,14.241 -37.786,9.731C-39.217,0.647 -38.915,-8.351 -36.382,-17.215C-35.502,-20.295 -34.212,-23.194 -32.308,-25.794C-26.193,-34.149 -14.143,-34.576 -7.51,-26.614C-2.952,-21.132 -1.279,-14.516 -0.434,-7.638C-0.158,-5.344 -0.139,-3.021 0,-0.712M-24.076,-1.163C-24.076,1.248 -24.147,3.659 -24.057,6.061C-23.971,8.374 -23.658,10.674 -22.662,12.803C-22.022,14.18 -21.071,15.241 -19.404,15.279C-17.631,15.319 -16.558,14.272 -15.824,12.804C-15.307,11.768 -14.985,10.646 -14.872,9.493C-14.142,2.381 -14.221,-4.731 -14.929,-11.838C-15.047,-13.288 -15.523,-14.686 -16.315,-15.906C-17.99,-18.391 -20.916,-18.263 -22.359,-15.656C-23.017,-14.47 -23.324,-13.154 -23.582,-11.823C-24.264,-8.289 -24.152,-4.726 -24.076,-1.163" style="fill:rgb(239,239,240);fill-rule:nonzero;"/>
                    </g>
                    <g transform="matrix(1,0,0,1,253.013,144.601)">
                        <path d="M0,-2.54C-0.232,3.968 -0.598,9.353 -2.091,14.593C-2.86,17.296 -3.911,19.876 -5.421,22.258C-12.189,32.926 -26.981,32.707 -33.465,21.848C-35.984,17.627 -37.193,12.967 -37.908,8.182C-39.129,0.145 -38.803,-8.051 -36.945,-15.965C-36.06,-19.754 -34.667,-23.331 -32.373,-26.511C-26.224,-35.037 -14.099,-35.466 -7.412,-27.372C-2.934,-21.949 -1.312,-15.424 -0.436,-8.659C-0.127,-6.268 -0.088,-3.847 0,-2.54M-14.438,-1.736C-14.415,-5.297 -14.312,-8.858 -14.843,-12.402C-15.089,-14.045 -15.447,-15.638 -16.475,-16.969C-18.176,-19.173 -20.72,-19.06 -22.192,-16.726C-22.867,-15.664 -23.305,-14.469 -23.475,-13.222C-24.476,-5.87 -24.498,1.583 -23.537,8.941C-23.046,12.666 -21.314,14.562 -19.079,14.433C-16.844,14.304 -15.438,12.278 -14.837,8.64C-14.274,5.183 -14.446,1.719 -14.438,-1.736" style="fill:rgb(239,239,240);fill-rule:nonzero;"/>
                    </g>
                    <g transform="matrix(1,0,0,1,291.919,137.008)">
                        <path d="M0,12.551C-0.036,12.432 -0.064,12.31 -0.081,12.187C-0.162,11.843 -0.263,11.499 -0.344,11.176L-0.324,11.176C-1.316,7.753 -3.099,4.795 -5.57,2.218C-7.534,0.195 -9.518,-1.827 -11.463,-3.859C-12.265,-4.666 -12.973,-5.563 -13.569,-6.532C-14.36,-7.868 -14.602,-9.204 -13.67,-10.603C-12.739,-11.98 -11.422,-12.344 -9.863,-12.182C-7.777,-11.98 -6.035,-10.947 -4.354,-9.853C-3.423,-9.246 -2.551,-8.553 -1.465,-7.747L-1.465,-23.457C-2.715,-24.213 -4.022,-24.869 -5.375,-25.422C-5.396,-25.419 -5.419,-25.427 -5.435,-25.442C-6.244,-25.747 -7.095,-26.01 -7.926,-26.293C-8.018,-26.333 -8.115,-26.36 -8.215,-26.374C-8.661,-26.508 -9.115,-26.617 -9.573,-26.699C-10.362,-26.844 -11.112,-26.942 -11.841,-27.003L-11.862,-27.003C-12.9,-27.075 -13.943,-27.055 -14.979,-26.942C-16.772,-26.749 -18.523,-26.27 -20.165,-25.523C-21.768,-24.778 -23.229,-23.757 -24.479,-22.506C-26.666,-20.38 -28.091,-17.584 -28.773,-14.182C-30.089,-7.599 -29.441,-1.482 -24.727,3.783C-22.479,6.315 -20.433,9.049 -18.308,11.703C-17.092,13.221 -15.917,14.737 -15.29,16.644C-14.722,18.386 -15.533,19.642 -16.525,20.857C-17.558,22.072 -18.895,22.092 -20.312,21.647C-23.067,20.756 -25.255,18.933 -27.523,17.232C-28.049,16.826 -28.39,15.997 -29.346,16.26L-29.346,32.152C-23.694,38.999 -12.298,39.626 -5.75,33.51C-3.219,31.119 -1.497,28.224 -0.383,24.943C-0.261,24.537 -0.221,24.076 -0.079,23.643C0.309,22.145 0.54,20.61 0.61,19.064L0.61,17.041C0.558,15.528 0.353,14.024 0,12.551" style="fill:rgb(239,239,240);fill-rule:nonzero;"/>
                    </g>
                    <g transform="matrix(1,0,0,1,103.27,202.021)">
                        <path d="M0,-0.592L4.712,-0.592L4.712,6.275C4.033,6.885 3.309,7.328 2.542,7.603C1.775,7.878 0.973,8.016 0.136,8.016C-0.955,8.016 -1.948,7.806 -2.843,7.385C-3.737,6.965 -4.503,6.384 -5.139,5.644C-5.777,4.903 -6.268,4.025 -6.614,3.009C-6.96,1.993 -7.131,0.89 -7.131,-0.301C-7.131,-1.514 -6.968,-2.629 -6.64,-3.645C-6.314,-4.661 -5.845,-5.537 -5.235,-6.274C-4.626,-7.011 -3.889,-7.584 -3.025,-7.994C-2.161,-8.403 -1.195,-8.608 -0.128,-8.608C0.424,-8.608 0.942,-8.552 1.428,-8.44C1.913,-8.329 2.361,-8.176 2.77,-7.982C3.179,-7.789 3.553,-7.559 3.893,-7.29C4.232,-7.022 4.535,-6.732 4.803,-6.42L3.911,-4.756C3.771,-4.496 3.591,-4.336 3.37,-4.276C3.148,-4.216 2.911,-4.283 2.656,-4.477C2.413,-4.656 2.184,-4.81 1.97,-4.94C1.754,-5.071 1.534,-5.176 1.31,-5.259C1.085,-5.34 0.849,-5.4 0.6,-5.437C0.351,-5.475 0.072,-5.493 -0.236,-5.493C-0.813,-5.493 -1.331,-5.368 -1.792,-5.119C-2.253,-4.87 -2.645,-4.518 -2.97,-4.064C-3.294,-3.61 -3.545,-3.064 -3.721,-2.428C-3.897,-1.792 -3.984,-1.083 -3.984,-0.301C-3.984,0.562 -3.888,1.329 -3.693,1.999C-3.5,2.668 -3.225,3.234 -2.87,3.695C-2.515,4.157 -2.091,4.509 -1.597,4.75C-1.102,4.992 -0.556,5.113 0.045,5.113C0.415,5.113 0.75,5.068 1.051,4.979C1.351,4.89 1.643,4.771 1.928,4.622L1.928,2.155L0.618,2.155C0.424,2.155 0.273,2.092 0.163,1.965C0.055,1.839 0,1.678 0,1.485L0,-0.592Z" style="fill:rgb(239,239,240);fill-rule:nonzero;"/>
                    </g>
                    <g transform="matrix(1,0,0,1,114.358,202.21)">
                        <path d="M0,-0.971C0.419,-0.971 0.775,-1.036 1.069,-1.166C1.364,-1.297 1.604,-1.477 1.792,-1.708C1.98,-1.939 2.117,-2.208 2.202,-2.517C2.287,-2.826 2.33,-3.159 2.33,-3.516C2.33,-4.231 2.139,-4.789 1.761,-5.191C1.382,-5.593 0.795,-5.794 0,-5.794L-1.237,-5.794L-1.237,-0.971L0,-0.971ZM6.532,7.648L3.748,7.648C3.233,7.648 2.862,7.41 2.639,6.934L0.437,2.211C0.334,2.01 0.219,1.863 0.091,1.77C-0.035,1.677 -0.218,1.63 -0.455,1.63L-1.237,1.63L-1.237,7.648L-4.311,7.648L-4.311,-8.619L0,-8.619C0.958,-8.619 1.776,-8.497 2.452,-8.256C3.128,-8.014 3.68,-7.677 4.108,-7.246C4.535,-6.814 4.846,-6.304 5.04,-5.716C5.234,-5.128 5.331,-4.488 5.331,-3.795C5.331,-3.267 5.274,-2.768 5.159,-2.3C5.043,-1.831 4.873,-1.397 4.648,-0.999C4.425,-0.6 4.146,-0.245 3.817,0.067C3.486,0.38 3.105,0.637 2.674,0.838C2.875,0.964 3.063,1.123 3.239,1.312C3.415,1.502 3.573,1.727 3.711,1.988L6.532,7.648Z" style="fill:rgb(239,239,240);fill-rule:nonzero;"/>
                    </g>
                    <g transform="matrix(-1,0,0,1,247.108,83.451)">
                        <rect x="122.008" y="110.141" width="3.092" height="16.267" style="fill:rgb(239,239,240);"/>
                    </g>
                    <g transform="matrix(1,0,0,1,135.653,196.606)">
                        <path d="M0,10.238L0,13.252L-7.987,13.252L-7.987,-3.014L-4.913,-3.014L-4.913,10.238L0,10.238Z" style="fill:rgb(239,239,240);fill-rule:nonzero;"/>
                    </g>
                    <g transform="matrix(1,0,0,1,145.204,196.606)">
                        <path d="M0,10.238L0,13.252L-7.987,13.252L-7.987,-3.014L-4.913,-3.014L-4.913,10.238L0,10.238Z" style="fill:rgb(239,239,240);fill-rule:nonzero;"/>
                    </g>
                    <g transform="matrix(1,0,0,1,153.473,200.803)">
                        <path d="M0,1.843C-0.334,2.185 -0.571,2.552 -0.71,2.943C-0.85,3.333 -0.919,3.748 -0.919,4.188C-0.919,4.545 -0.875,4.868 -0.788,5.159C-0.7,5.449 -0.574,5.698 -0.409,5.907C-0.246,6.115 -0.051,6.277 0.177,6.392C0.404,6.508 0.658,6.565 0.937,6.565C1.343,6.565 1.722,6.5 2.074,6.37C2.425,6.24 2.753,6.056 3.056,5.818L0,1.843ZM9.069,9.055L6.286,9.055C6.146,9.055 6.021,9.046 5.912,9.027C5.803,9.009 5.701,8.977 5.608,8.932C5.513,8.887 5.424,8.825 5.339,8.742C5.254,8.661 5.163,8.556 5.066,8.43L4.494,7.693C3.918,8.184 3.288,8.564 2.606,8.832C1.923,9.1 1.197,9.233 0.428,9.233C-0.1,9.233 -0.618,9.122 -1.124,8.899C-1.63,8.675 -2.08,8.357 -2.475,7.944C-2.869,7.531 -3.187,7.031 -3.43,6.442C-3.673,5.855 -3.794,5.196 -3.794,4.466C-3.794,3.975 -3.732,3.51 -3.607,3.071C-3.482,2.632 -3.307,2.224 -3.08,1.848C-2.852,1.473 -2.584,1.13 -2.275,0.821C-1.965,0.512 -1.622,0.243 -1.246,0.012C-1.538,-0.532 -1.747,-1.064 -1.874,-1.585C-2.002,-2.106 -2.065,-2.612 -2.065,-3.103C-2.065,-3.684 -1.979,-4.232 -1.806,-4.75C-1.633,-5.267 -1.382,-5.721 -1.051,-6.112C-0.721,-6.503 -0.314,-6.813 0.168,-7.044C0.65,-7.275 1.203,-7.39 1.828,-7.39C2.417,-7.39 2.934,-7.284 3.384,-7.072C3.833,-6.86 4.211,-6.581 4.52,-6.235C4.83,-5.889 5.073,-5.488 5.248,-5.034C5.424,-4.58 5.534,-4.115 5.576,-3.639L3.756,-3.193C3.435,-3.103 3.199,-3.259 3.047,-3.661C2.908,-4.048 2.745,-4.342 2.561,-4.543C2.376,-4.744 2.131,-4.845 1.828,-4.845C1.616,-4.845 1.431,-4.796 1.273,-4.7C1.115,-4.603 0.983,-4.476 0.878,-4.32C0.771,-4.163 0.691,-3.981 0.636,-3.773C0.582,-3.564 0.554,-3.348 0.554,-3.125C0.554,-2.932 0.568,-2.748 0.595,-2.573C0.623,-2.398 0.669,-2.219 0.736,-2.037C0.803,-1.854 0.893,-1.666 1.005,-1.473C1.117,-1.279 1.258,-1.067 1.428,-0.837L4.703,3.395C4.866,2.956 5,2.492 5.103,2.005C5.206,1.517 5.273,1.017 5.303,0.503C5.321,0.295 5.379,0.131 5.476,0.012C5.572,-0.107 5.703,-0.167 5.867,-0.167L7.649,-0.167C7.649,0.912 7.531,1.925 7.295,2.87C7.058,3.815 6.725,4.679 6.294,5.46L9.069,9.055Z" style="fill:rgb(239,239,240);fill-rule:nonzero;"/>
                    </g>
                    <g transform="matrix(1,0,0,1,174.339,202.021)">
                        <path d="M0,-0.592L4.712,-0.592L4.712,6.275C4.033,6.885 3.309,7.328 2.542,7.603C1.775,7.878 0.973,8.016 0.136,8.016C-0.955,8.016 -1.948,7.806 -2.843,7.385C-3.737,6.965 -4.503,6.384 -5.139,5.644C-5.777,4.903 -6.268,4.025 -6.614,3.009C-6.96,1.993 -7.131,0.89 -7.131,-0.301C-7.131,-1.514 -6.968,-2.629 -6.64,-3.645C-6.314,-4.661 -5.845,-5.537 -5.235,-6.274C-4.626,-7.011 -3.889,-7.584 -3.025,-7.994C-2.161,-8.403 -1.195,-8.608 -0.128,-8.608C0.424,-8.608 0.942,-8.552 1.428,-8.44C1.913,-8.329 2.361,-8.176 2.77,-7.982C3.179,-7.789 3.553,-7.559 3.893,-7.29C4.232,-7.022 4.535,-6.732 4.803,-6.42L3.911,-4.756C3.771,-4.496 3.591,-4.336 3.37,-4.276C3.148,-4.216 2.911,-4.283 2.656,-4.477C2.413,-4.656 2.184,-4.81 1.97,-4.94C1.754,-5.071 1.534,-5.176 1.31,-5.259C1.085,-5.34 0.849,-5.4 0.6,-5.437C0.351,-5.475 0.072,-5.493 -0.236,-5.493C-0.813,-5.493 -1.331,-5.368 -1.792,-5.119C-2.253,-4.87 -2.645,-4.518 -2.97,-4.064C-3.294,-3.61 -3.545,-3.064 -3.721,-2.428C-3.897,-1.792 -3.984,-1.083 -3.984,-0.301C-3.984,0.562 -3.888,1.329 -3.693,1.999C-3.5,2.668 -3.225,3.234 -2.87,3.695C-2.515,4.157 -2.091,4.509 -1.597,4.75C-1.102,4.992 -0.556,5.113 0.045,5.113C0.415,5.113 0.75,5.068 1.051,4.979C1.351,4.89 1.643,4.771 1.928,4.622L1.928,2.155L0.618,2.155C0.424,2.155 0.273,2.092 0.163,1.965C0.055,1.839 0,1.678 0,1.485L0,-0.592Z" style="fill:rgb(239,239,240);fill-rule:nonzero;"/>
                    </g>
                    <g transform="matrix(1,0,0,1,187.074,199.777)">
                        <path d="M0,3.896L0,10.081L-3.075,10.081L-3.075,3.896L-7.878,-6.185L-5.167,-6.185C-4.9,-6.185 -4.689,-6.109 -4.534,-5.957C-4.38,-5.804 -4.252,-5.608 -4.149,-5.37L-2.275,-0.637C-2.117,-0.264 -1.974,0.084 -1.847,0.407C-1.719,0.731 -1.607,1.049 -1.511,1.362C-1.419,1.042 -1.315,0.72 -1.196,0.396C-1.078,0.072 -0.94,-0.272 -0.782,-0.637L1.073,-5.37C1.115,-5.467 1.167,-5.564 1.228,-5.661C1.288,-5.757 1.359,-5.845 1.442,-5.923C1.524,-6.001 1.617,-6.064 1.723,-6.113C1.83,-6.161 1.946,-6.185 2.074,-6.185L4.803,-6.185L0,3.896Z" style="fill:rgb(239,239,240);fill-rule:nonzero;"/>
                    </g>
                    <g transform="matrix(1,0,0,1,197.225,202.21)">
                        <path d="M0,-0.971C0.419,-0.971 0.775,-1.036 1.069,-1.166C1.364,-1.297 1.604,-1.477 1.792,-1.708C1.98,-1.939 2.117,-2.208 2.202,-2.517C2.287,-2.826 2.33,-3.159 2.33,-3.516C2.33,-4.231 2.139,-4.789 1.761,-5.191C1.382,-5.593 0.795,-5.794 0,-5.794L-1.237,-5.794L-1.237,-0.971L0,-0.971ZM6.532,7.648L3.748,7.648C3.233,7.648 2.862,7.41 2.639,6.934L0.437,2.211C0.334,2.01 0.219,1.863 0.091,1.77C-0.035,1.677 -0.218,1.63 -0.455,1.63L-1.237,1.63L-1.237,7.648L-4.311,7.648L-4.311,-8.619L0,-8.619C0.958,-8.619 1.776,-8.497 2.452,-8.256C3.128,-8.014 3.68,-7.677 4.108,-7.246C4.535,-6.814 4.846,-6.304 5.04,-5.716C5.234,-5.128 5.331,-4.488 5.331,-3.795C5.331,-3.267 5.274,-2.768 5.159,-2.3C5.043,-1.831 4.873,-1.397 4.648,-0.999C4.425,-0.6 4.146,-0.245 3.817,0.067C3.486,0.38 3.105,0.637 2.674,0.838C2.875,0.964 3.063,1.123 3.239,1.312C3.415,1.502 3.573,1.727 3.711,1.988L6.532,7.648Z" style="fill:rgb(239,239,240);fill-rule:nonzero;"/>
                    </g>
                    <g transform="matrix(1,0,0,1,214.5,201.731)">
                        <path d="M0,-0.011C0,-0.815 -0.086,-1.539 -0.255,-2.183C-0.426,-2.826 -0.669,-3.371 -0.987,-3.818C-1.306,-4.265 -1.696,-4.607 -2.157,-4.845C-2.617,-5.084 -3.142,-5.202 -3.73,-5.202C-4.325,-5.202 -4.854,-5.084 -5.318,-4.845C-5.781,-4.607 -6.172,-4.265 -6.491,-3.818C-6.809,-3.371 -7.053,-2.826 -7.223,-2.183C-7.393,-1.539 -7.477,-0.815 -7.477,-0.011C-7.477,0.8 -7.393,1.528 -7.223,2.171C-7.053,2.815 -6.809,3.361 -6.491,3.807C-6.172,4.254 -5.781,4.594 -5.318,4.829C-4.854,5.063 -4.325,5.18 -3.73,5.18C-3.142,5.18 -2.617,5.063 -2.157,4.829C-1.696,4.594 -1.306,4.254 -0.987,3.807C-0.669,3.361 -0.426,2.815 -0.255,2.171C-0.086,1.528 0,0.8 0,-0.011M3.147,-0.011C3.147,1.165 2.982,2.259 2.651,3.271C2.321,4.284 1.856,5.164 1.255,5.912C0.654,6.659 -0.069,7.246 -0.914,7.67C-1.761,8.094 -2.699,8.306 -3.73,8.306C-4.761,8.306 -5.701,8.094 -6.55,7.67C-7.399,7.246 -8.125,6.659 -8.728,5.912C-9.332,5.164 -9.799,4.284 -10.129,3.271C-10.46,2.259 -10.625,1.165 -10.625,-0.011C-10.625,-1.187 -10.46,-2.281 -10.129,-3.294C-9.799,-4.306 -9.332,-5.184 -8.728,-5.928C-8.125,-6.672 -7.399,-7.257 -6.55,-7.681C-5.701,-8.105 -4.761,-8.317 -3.73,-8.317C-2.699,-8.317 -1.761,-8.104 -0.914,-7.675C-0.069,-7.247 0.654,-6.661 1.255,-5.917C1.856,-5.173 2.321,-4.294 2.651,-3.282C2.982,-2.27 3.147,-1.18 3.147,-0.011" style="fill:rgb(239,239,240);fill-rule:nonzero;"/>
                    </g>
                    <g transform="matrix(1,0,0,1,226.78,206.554)">
                        <path d="M0,-9.658C-0.091,-9.479 -0.187,-9.345 -0.287,-9.256C-0.387,-9.166 -0.516,-9.122 -0.674,-9.122C-0.813,-9.122 -0.963,-9.176 -1.124,-9.284C-1.284,-9.392 -1.467,-9.512 -1.67,-9.647C-1.873,-9.78 -2.105,-9.901 -2.365,-10.009C-2.626,-10.117 -2.924,-10.171 -3.257,-10.171C-3.833,-10.171 -4.263,-10.021 -4.544,-9.719C-4.826,-9.418 -4.967,-9.01 -4.967,-8.496C-4.967,-8.169 -4.883,-7.897 -4.713,-7.681C-4.543,-7.465 -4.319,-7.28 -4.043,-7.123C-3.768,-6.967 -3.452,-6.823 -3.098,-6.693C-2.743,-6.563 -2.381,-6.418 -2.01,-6.258C-1.641,-6.098 -1.279,-5.91 -0.924,-5.694C-0.568,-5.478 -0.254,-5.203 0.023,-4.868C0.299,-4.533 0.521,-4.126 0.691,-3.646C0.861,-3.165 0.946,-2.587 0.946,-1.91C0.946,-1.158 0.839,-0.454 0.628,0.201C0.415,0.855 0.107,1.427 -0.297,1.914C-0.699,2.402 -1.197,2.785 -1.788,3.064C-2.379,3.343 -3.05,3.483 -3.803,3.483C-4.215,3.483 -4.635,3.43 -5.063,3.327C-5.49,3.223 -5.904,3.075 -6.304,2.886C-6.705,2.696 -7.081,2.471 -7.432,2.21C-7.784,1.95 -8.09,1.659 -8.351,1.339L-7.441,-0.425C-7.369,-0.551 -7.273,-0.657 -7.155,-0.743C-7.037,-0.828 -6.908,-0.871 -6.768,-0.871C-6.587,-0.871 -6.403,-0.8 -6.218,-0.659C-6.033,-0.518 -5.824,-0.361 -5.591,-0.19C-5.356,-0.019 -5.089,0.137 -4.785,0.278C-4.482,0.42 -4.124,0.491 -3.711,0.491C-3.154,0.491 -2.721,0.34 -2.411,0.039C-2.102,-0.263 -1.947,-0.741 -1.947,-1.396C-1.947,-1.775 -2.032,-2.084 -2.202,-2.323C-2.371,-2.561 -2.595,-2.758 -2.87,-2.914C-3.146,-3.071 -3.46,-3.208 -3.812,-3.328C-4.164,-3.446 -4.525,-3.578 -4.894,-3.724C-5.264,-3.869 -5.625,-4.048 -5.976,-4.26C-6.329,-4.472 -6.643,-4.751 -6.919,-5.097C-7.194,-5.443 -7.417,-5.875 -7.587,-6.392C-7.757,-6.909 -7.842,-7.548 -7.842,-8.307C-7.842,-8.917 -7.742,-9.512 -7.542,-10.093C-7.341,-10.674 -7.048,-11.191 -6.659,-11.645C-6.271,-12.099 -5.795,-12.462 -5.231,-12.734C-4.667,-13.005 -4.021,-13.141 -3.293,-13.141C-2.887,-13.141 -2.492,-13.102 -2.106,-13.024C-1.721,-12.945 -1.356,-12.83 -1.01,-12.678C-0.664,-12.525 -0.342,-12.343 -0.041,-12.13C0.259,-11.919 0.528,-11.679 0.764,-11.411L0,-9.658Z" style="fill:rgb(239,239,240);fill-rule:nonzero;"/>
                    </g>
                </g>
            </g>
        </g>
    </g>
</svg>
